<svg aria-hidden="true" style="position: absolute; width: 0; height: 0; overflow: hidden;" version="1.1" xmlns="http://www.w3.org/2000/svg" xmlns:xlink="http://www.w3.org/1999/xlink">
<defs>
<symbol id="icon-moon1" viewBox="0 0 32 32">
<path d="M8.535 10.681c0-2.324 0.627-4.498 1.713-6.375 0.263-0.454-0.134-1.015-0.642-0.885-5.863 1.506-10.103 7.046-9.559 13.495 0.515 6.087 5.435 11.056 11.518 11.625 4.221 0.395 8.057-1.267 10.649-4.091 0.35-0.382 0.051-1.002-0.466-0.98-0.137 0.006-0.276 0.009-0.416 0.009-7.067 0-12.796-5.729-12.796-12.798z"></path>
<path d="M16.192 3.918l0.642 1.842 1.95 0.043c0.248 0.006 0.348 0.319 0.152 0.468l-1.554 1.18 0.563 1.867c0.073 0.236-0.195 0.43-0.397 0.29l-1.604-1.112-1.602 1.112c-0.203 0.141-0.468-0.053-0.398-0.29l0.563-1.867-1.554-1.18c-0.196-0.149-0.094-0.462 0.152-0.468l1.95-0.043 0.642-1.842c0.081-0.233 0.411-0.233 0.493 0z"></path>
<path d="M28.166 18.498l0.616 1.77 1.874 0.040c0.272 0.006 0.384 0.351 0.168 0.516l-1.493 1.134 0.54 1.794c0.078 0.26-0.216 0.474-0.439 0.318l-1.54-1.068-1.539 1.068c-0.222 0.156-0.517-0.058-0.438-0.318l0.54-1.794-1.492-1.134c-0.217-0.164-0.104-0.51 0.166-0.516l1.874-0.040 0.618-1.77c0.090-0.256 0.453-0.256 0.543 0z"></path>
<path d="M27.933 5.665l0.927 2.658 2.813 0.060c0.316 0.007 0.447 0.409 0.195 0.6l-2.242 1.703 0.813 2.696c0.092 0.303-0.249 0.551-0.51 0.37l-2.313-1.605-2.312 1.605c-0.26 0.181-0.602-0.068-0.51-0.37l0.812-2.696-2.242-1.703c-0.25-0.191-0.12-0.594 0.195-0.6l2.814-0.060 0.926-2.658c0.107-0.298 0.529-0.298 0.634 0z"></path>
</symbol>
<symbol id="icon-moon2" viewBox="0 0 32 32">
<path d="M32 16c0 8.837-7.163 16-16 16s-16-7.163-16-16c0-8.837 7.163-16 16-16s16 7.163 16 16z"></path>
<path fill="#f1eb75" d="M16.775 16.386c0-3.533 1.925-6.613 4.783-8.257-1.064-0.446-2.232-0.693-3.458-0.693-4.943 0-8.95 4.007-8.95 8.95s4.007 8.95 8.95 8.95c1.226 0 2.394-0.247 3.458-0.693-2.857-1.643-4.783-4.724-4.783-8.256z"></path>
</symbol>
<symbol id="icon-sun1" viewBox="0 0 32 32">
<path fill="#ffde55" style="fill: var(--color3, #ffde55)" d="M15.089 26.586h1.822v5.414h-1.822v-5.414z"></path>
<path fill="#ffde55" style="fill: var(--color3, #ffde55)" d="M15.089 0h1.822v5.414h-1.822v-5.414z"></path>
<path fill="#fceba2" style="fill: var(--color4, #fceba2)" d="M5.331 27.958l-1.289-1.289 3.828-3.828 1.289 1.289-3.828 3.828z"></path>
<path fill="#fceba2" style="fill: var(--color4, #fceba2)" d="M24.13 9.159l-1.289-1.289 3.828-3.828 1.289 1.289-3.828 3.828z"></path>
<path fill="#ffde55" style="fill: var(--color3, #ffde55)" d="M0 15.089h5.414v1.822h-5.414v-1.822z"></path>
<path fill="#ffde55" style="fill: var(--color3, #ffde55)" d="M26.586 15.089h5.414v1.822h-5.414v-1.822z"></path>
<path fill="#fceba2" style="fill: var(--color4, #fceba2)" d="M4.042 5.331l1.289-1.289 3.828 3.828-1.289 1.289-3.828-3.828z"></path>
<path fill="#fceba2" style="fill: var(--color4, #fceba2)" d="M22.841 24.13l1.289-1.289 3.828 3.828-1.289 1.289-3.828-3.828z"></path>
<path fill="#fceba2" style="fill: var(--color4, #fceba2)" d="M24.691 16c0 4.8-3.891 8.692-8.692 8.692s-8.692-3.891-8.692-8.692c0-4.8 3.891-8.692 8.692-8.692s8.692 3.891 8.692 8.692z"></path>
<path fill="#ffde55" style="fill: var(--color3, #ffde55)" d="M22.669 16c0 3.683-2.986 6.669-6.669 6.669s-6.669-2.986-6.669-6.669c0-3.683 2.986-6.669 6.669-6.669s6.669 2.986 6.669 6.669z"></path>
</symbol>
<symbol id="icon-sun2" viewBox="0 0 32 32">
<path d="M16 26c1.105 0 2 0.895 2 2v2c0 1.105-0.895 2-2 2s-2-0.895-2-2v-2c0-1.105 0.895-2 2-2zM16 6c-1.105 0-2-0.895-2-2v-2c0-1.105 0.895-2 2-2s2 0.895 2 2v2c0 1.105-0.895 2-2 2zM30 14c1.105 0 2 0.895 2 2s-0.895 2-2 2h-2c-1.105 0-2-0.895-2-2s0.895-2 2-2h2zM6 16c0 1.105-0.895 2-2 2h-2c-1.105 0-2-0.895-2-2s0.895-2 2-2h2c1.105 0 2 0.895 2 2zM25.899 23.071l1.414 1.414c0.781 0.781 0.781 2.047 0 2.828s-2.047 0.781-2.828 0l-1.414-1.414c-0.781-0.781-0.781-2.047 0-2.828s2.047-0.781 2.828 0zM6.101 8.929l-1.414-1.414c-0.781-0.781-0.781-2.047 0-2.828s2.047-0.781 2.828 0l1.414 1.414c0.781 0.781 0.781 2.047 0 2.828s-2.047 0.781-2.828 0zM25.899 8.929c-0.781 0.781-2.047 0.781-2.828 0s-0.781-2.047 0-2.828l1.414-1.414c0.781-0.781 2.047-0.781 2.828 0s0.781 2.047 0 2.828l-1.414 1.414zM6.101 23.071c0.781-0.781 2.047-0.781 2.828 0s0.781 2.047 0 2.828l-1.414 1.414c-0.781 0.781-2.047 0.781-2.828 0s-0.781-2.047 0-2.828l1.414-1.414z"></path>
<path d="M16 8c-4.418 0-8 3.582-8 8s3.582 8 8 8c4.418 0 8-3.582 8-8s-3.582-8-8-8zM16 21c-2.761 0-5-2.239-5-5s2.239-5 5-5 5 2.239 5 5-2.239 5-5 5z"></path>
</symbol>
<symbol id="icon-contrast" viewBox="0 0 32 32">
<path d="M16 0c-8.837 0-16 7.163-16 16s7.163 16 16 16 16-7.163 16-16-7.163-16-16-16zM4 16c0-6.627 5.373-12 12-12v24c-6.627 0-12-5.373-12-12z"></path>
</symbol>
<symbol id="icon-contrast2" viewBox="0 0 32 32">
<path d="M16 8c-4.418 0-8 3.582-8 8s3.582 8 8 8 8-3.582 8-8-3.582-8-8-8zM16 21v-10c2.757 0 5 2.243 5 5s-2.243 5-5 5zM16 26c1.105 0 2 0.895 2 2v2c0 1.105-0.895 2-2 2s-2-0.895-2-2v-2c0-1.105 0.895-2 2-2zM16 6c-1.105 0-2-0.895-2-2v-2c0-1.105 0.895-2 2-2s2 0.895 2 2v2c0 1.105-0.895 2-2 2zM30 14c1.105 0 2 0.895 2 2s-0.895 2-2 2h-2c-1.105 0-2-0.895-2-2s0.895-2 2-2h2zM6 16c0 1.105-0.895 2-2 2h-2c-1.105 0-2-0.895-2-2s0.895-2 2-2h2c1.105 0 2 0.895 2 2zM25.899 23.071l1.414 1.414c0.781 0.781 0.781 2.047 0 2.828s-2.047 0.781-2.828 0l-1.414-1.414c-0.781-0.781-0.781-2.047 0-2.828s2.047-0.781 2.828 0zM6.101 8.929l-1.414-1.414c-0.781-0.781-0.781-2.047 0-2.828s2.047-0.781 2.828 0l1.414 1.414c0.781 0.781 0.781 2.047 0 2.828s-2.047 0.781-2.828 0zM25.899 8.929c-0.781 0.781-2.047 0.781-2.828 0s-0.781-2.047 0-2.828l1.414-1.414c0.781-0.781 2.047-0.781 2.828 0s0.781 2.047 0 2.828l-1.414 1.414zM6.101 23.071c0.781-0.781 2.047-0.781 2.828 0s0.781 2.047 0 2.828l-1.414 1.414c-0.781 0.781-2.047 0.781-2.828 0s-0.781-2.047 0-2.828l1.414-1.414z"></path>
</symbol>
</defs>
</svg>
